<svg xmlns="http://www.w3.org/2000/svg" viewBox="0 0 512 512" width="512" height="512">
  <rect width="512" height="512" rx="112" fill="#22C55E"/>
  <g transform="translate(56,56) scale(4)">
    <defs>
      <mask id="envelope-cutout">
        <rect width="100" height="100" fill="white" />
        <path d="M 8 22 L 50 48 L 92 22" fill="none" stroke="black" stroke-width="4.5" stroke-linecap="round" stroke-linejoin="round" />
        <path transform="translate(10, 10) scale(0.8)"
              d="M 50 72 C 40 65, 24 49, 24 36 C 24 26, 33 22, 40 22 C 45 22, 48 25, 50 29 C 52 25, 55 22, 60 22 C 67 22, 76 26, 76 36 C 76 49, 60 65, 50 72 Z" 
              fill="black" stroke="black" stroke-width="12.5" stroke-linejoin="round" />
      </mask>
    </defs>
    <rect x="6" y="20" width="88" height="60" rx="6" fill="#1A1A1A" mask="url(#envelope-cutout)" />
    <path transform="translate(10, 10) scale(0.8)"
          d="M 50 72 C 40 65, 24 49, 24 36 C 24 26, 33 22, 40 22 C 45 22, 48 25, 50 29 C 52 25, 55 22, 60 22 C 67 22, 76 26, 76 36 C 76 49, 60 65, 50 72 Z" 
          fill="#1A1A1A" />
  </g>
</svg>
