<svg xmlns="http://www.w3.org/2000/svg" viewBox="0 0 550 512" width="550" height="512">
  <!-- Tag/Arrow shape background made much larger to match the visual scale of other icons -->
  <path d="M 60 10 H 370 Q 395 10 415 28 L 540 226 Q 560 256 540 286 L 415 484 Q 395 502 370 502 H 60 Q 10 502 10 452 V 60 Q 10 10 60 10 Z" fill="#478BFF" />
  
  <!-- User's provided SVG path (re-centered and slightly scaled up) -->
  <g transform="translate(105, 95) scale(1.0)" fill="#1A1A1A">
    <path d="M274.556,9.36L7.53,121.792c-8.754,3.686-10.206,15.481-2.607,21.18l49.523,37.142L278.762,15.616 C281.743,12.635,278.441,7.724,274.556,9.36z"></path> 
    <path d="M290.875,25.249l-2.358,1.729L106.87,208.626l93.153,62.101c6.749,4.5,15.929,1.35,18.494-6.346l78.273-234.82 C297.974,26.009,293.894,23.035,290.875,25.249z"></path> 
    <polygon points="71.92,287.965 129.44,241.619 98.665,221.103 "></polygon> 
    <path d="M89.868,204.51c0.001-0.001,0.002-0.002,0.003-0.003l102.422-102.422c1.609-1.609-0.557-4.133-2.392-2.788 l-128.04,93.895v79.714l26.357-65.892C88.606,206.045,89.175,205.204,89.868,204.51z"></path>
  </g>
</svg>
